<?xml version="1.0" encoding="utf-8"?>
<!-- Generator: Adobe Illustrator 15.0.0, SVG Export Plug-In . SVG Version: 6.00 Build 0)  -->
<!DOCTYPE svg PUBLIC "-//W3C//DTD SVG 1.1//EN" "http://www.w3.org/Graphics/SVG/1.1/DTD/svg11.dtd">
<svg version="1.1" id="Layer_1" xmlns="http://www.w3.org/2000/svg" xmlns:xlink="http://www.w3.org/1999/xlink" x="0px" y="0px"
	 width="150px" height="150px" viewBox="0 0 150 150" enable-background="new 0 0 150 150" xml:space="preserve">
<g opacity="0.2">
	<path fill="#FFFFFF" d="M81.808,42.244c0,12.328,9.672,22.321,21.603,22.321c11.932,0,21.604-9.993,21.604-22.321
		c0-11.589-8.547-21.113-19.483-22.214c1.496-7.583,6.459-13.737,10.368-17.567c1.096-1.073-0.05-2.89-1.493-2.371
		c-25.48,9.164-31.06,31.337-32.144,37.585C81.965,39.151,81.808,40.679,81.808,42.244z"/>
	<path fill="#FFFFFF" d="M26.433,42.244c0,12.328,9.671,22.321,21.602,22.321c11.932,0,21.604-9.993,21.604-22.321
		c0-11.589-8.547-21.113-19.484-22.214c1.496-7.583,6.459-13.737,10.369-17.567c1.095-1.073-0.051-2.89-1.494-2.371
		c-25.48,9.164-31.06,31.337-32.143,37.585C26.589,39.151,26.433,40.679,26.433,42.244z"/>
</g>
</svg>
